<svg id="Layer_1" data-name="Layer 1" xmlns="http://www.w3.org/2000/svg" viewBox="0 0 218.15 242.71"><defs><style>.cls-1{fill:#65afd3;}.cls-2{fill:#424242;}.cls-3{fill:#424241;}.cls-4{fill:#fc0101;}</style></defs><title>logo pkk</title><path class="cls-1" d="M110.88,189.56c-6,0-12.11,0-18.16,0-2.91,0-5.07-.46-5-3.7.06-2.87,1.91-3.68,4.69-3.68q19.29,0,38.58,0c2.65,0,4.27,1,4.34,3.57.07,2.82-1.57,3.8-4.49,3.78C124.19,189.54,117.54,189.56,110.88,189.56Z"/><path class="cls-1" d="M111.28,179.58c-6.36,0-12.72,0-19.07,0-3,0-4.52-1-4.47-3.8.05-2.58,1.48-3.54,4.26-3.53q19.53,0,39.05,0c2.77,0,4.25,1,4.28,3.56,0,2.76-1.57,3.8-4.53,3.77C124.29,179.55,117.79,179.58,111.28,179.58Z"/><path class="cls-2" d="M96.89,192.52h28.92c-1.86,4.94-6.86,8.1-13.37,8.51A16.14,16.14,0,0,1,96.89,192.52Z"/><path class="cls-3" d="M69.24,86.1s-5.66,9-2.29,21.65,8.19,19.37,18.15,28.47c0,0-.72,2.52-1.11,2.63s-21-23-21-23l1.3-28.14Z"/><path class="cls-1" d="M85.33,93.4s1,7.86,2.74,16.79h-3L82.82,92.36Z"/><path class="cls-4" d="M134,105.77s-8.68,3.16-11.6,3.9l1.18-2.81Z"/><path class="cls-1" d="M165.14,58.22c-16.43-5.08-32.81-10.27-49.22-15.4a23.81,23.81,0,0,0-15.13.12Q79.16,50.26,57.51,57.57c-2.95,1-5,2.64-5,5.57,0,2.71,1.88,4.35,4.7,5.34,5.77,2,11.43,4.3,17.24,6.26,2.65.89,3.47,2.14,3.56,4.7.41,11.56-.22,23-4.76,34-.59,3.75,1.59,5.36,5.54,5.61h5.46c6.4-1.19,4.06-5.36,3.82-8.82h0c-.12-.8-.24-1.59-.37-2.39-1-1.46-.85-3.09-.92-4.69h0v0h0c-.48-1.79-1.32-3.57-1.37-5.37-.18-6-.07-12-.07-18.34,3.67.42,6.74,1.92,9.83,3.35,1.84.58,3.74,1,5.5,1.76a21.81,21.81,0,0,0,15.41.29c8.07-2.58,16.17-5.07,24.68-7.74,0,6.12-.06,11.85,0,17.57a2.61,2.61,0,0,1-.3,1.39h0s1.26,1.48-23.66,8.54h0a17.81,17.81,0,0,1-12-1.1h0s-4.27-1.67-5.71-2.34c-2-.72-4.08-1-5.41,1.44a3.51,3.51,0,0,0-.42,1.13c.15,1.64,4.34,3.81,6.58,4.86a6.25,6.25,0,0,1,.6.24,26,26,0,0,0,22.76.6,13.23,13.23,0,0,1,2.4-.65l1.62-.54c5.24-1.84,10.47-3.71,15.74-5.49,3.52-1.2,5.29-3.23,5.19-6.72-.17-5.91.16-11.84-.14-17.74-.15-2.86,1-4,3.94-4.75,4.49-1.15,8.83-2.79,13.28-4.1,3-.89,5.19-2.5,5.23-5.39C170.52,60.92,168.37,59.22,165.14,58.22ZM126.51,74.55c-1.86.59-3.73,1.14-5.59,1.72-14.11,4.38-14.75,4.33-29.09-2.56L104.1,69c2.67-1,6-1.9,4.37-5.31-1.54-3.17-4.46-1.78-7-.82C95.74,65.06,90,67.19,84.29,69.35c-1.27.47-2.5,1-3.92.52L61.84,63.06c14.92-5,28.84-9.68,42.79-14.29a12.39,12.39,0,0,1,7.62-.06c15.86,4.9,31.72,9.82,48.54,15Z"/><path class="cls-3" d="M160.33,80.32c-1.42-2.6-3.44-4.48-6.74-3-3.12,1.44-2.42,3.88-1.05,6.29a41.55,41.55,0,0,1,2.36,4.72v0s4.66,8.62.91,20.94c-3,11.07-9.6,20.3-19.19,27.65-5.52,4.22-8.25,8.83-7.84,15.34.34,5.4-3.74,8.58-10,8.69-4.24.07-8.48,0-12.73,0-9,0-12-2.57-11.89-10.64A13.69,13.69,0,0,0,88,138.41l-1.13-.84h0l-.19-.15a45.25,45.25,0,0,1-6.42-5.76c-5.51-5.62-12.64-14.78-13.64-25.32h0c-1.88-8.12,0-15.79,4.18-23.15,1.38-2.41,2-4.75-1.26-6.18s-5,.41-6.43,2.79A38,38,0,0,0,57.5,102c.85,16.4,9.44,29.52,22.69,40.4,3.64,3,5.36,5.86,5.34,10.34-.06,9.22,7.53,15.6,17.87,15.76,4.86.08,9.72,0,14.58,0,12.45,0,19.42-6.11,19.32-17.26,0-3.27,1.19-5.54,4-7.63a64,64,0,0,0,18.22-20.92C167,108.68,168.14,94.56,160.33,80.32Z"/></svg>